<?xml version="1.0" encoding="utf-8"?>
<!-- Generator: Adobe Illustrator 23.1.0, SVG Export Plug-In . SVG Version: 6.00 Build 0)  -->
<svg version="1.1" id="Warstwa_1" xmlns="http://www.w3.org/2000/svg" xmlns:xlink="http://www.w3.org/1999/xlink" x="0px" y="0px"
	 viewBox="0 0 119.7 13.89" style="enable-background:new 0 0 119.7 13.89;" xml:space="preserve">
<g>
	<path d="M9.18,13.69h-2.6L4.22,4.74l-1.56,8.95H0L2.34,0.19h2.61l2.37,8.96l1.56-8.96h2.65L9.18,13.69z"/>
	<path d="M20.78,7.85h-4.12l-0.62,3.58h4.88l-0.4,2.26h-7.53l2.34-13.51h7.52l-0.4,2.27H17.6l-0.56,3.19h4.13L20.78,7.85z"/>
	<path d="M34.75,0.19l-1.58,9.28c-0.19,1.4-0.71,2.5-1.57,3.28c-0.85,0.79-1.97,1.17-3.36,1.14c-1.3-0.02-2.28-0.43-2.95-1.22
		c-0.67-0.79-0.92-1.86-0.77-3.2l1.58-9.28h2.67l-1.56,9.29l-0.04,0.8c0,0.87,0.43,1.31,1.29,1.35c0.59,0.02,1.06-0.14,1.39-0.47
		s0.55-0.89,0.66-1.67l1.57-9.29H34.75z"/>
	<path d="M40.86,8.76h-1.35l-0.85,4.94h-2.66l2.34-13.51l4.08,0.01c1.21,0.04,2.13,0.41,2.77,1.11C45.83,2.01,46.1,2.98,46,4.19
		c-0.15,1.85-1,3.14-2.52,3.86l1.35,5.49v0.15h-2.86L40.86,8.76z M39.9,6.49l1.4,0.02c0.64-0.01,1.15-0.27,1.52-0.77
		c0.37-0.5,0.55-1.16,0.55-1.98c-0.02-0.81-0.38-1.24-1.07-1.29l-1.7-0.01L39.9,6.49z"/>
	<path d="M52.56,13.88c-1.19-0.02-2.13-0.41-2.83-1.17c-0.7-0.75-1.07-1.8-1.14-3.15c-0.02-0.46-0.01-0.93,0.06-1.41L49,5.91
		c0.18-1.2,0.53-2.26,1.05-3.19s1.17-1.62,1.94-2.07C52.76,0.2,53.63-0.02,54.6,0c1.2,0.02,2.14,0.43,2.83,1.23
		c0.68,0.79,1.05,1.88,1.1,3.26c0.01,0.52-0.02,1.01-0.08,1.48l-0.31,2.07c-0.28,1.86-0.9,3.3-1.88,4.34
		C55.28,13.41,54.05,13.91,52.56,13.88z M55.78,5.87c0.07-0.64,0.11-1.13,0.11-1.48c-0.03-1.38-0.53-2.09-1.49-2.12
		c-0.74-0.03-1.34,0.25-1.79,0.84c-0.46,0.59-0.77,1.52-0.95,2.78l-0.32,2.27c-0.07,0.61-0.1,1.09-0.08,1.44
		c0.03,1.3,0.54,1.97,1.53,2.01c0.71,0.02,1.28-0.23,1.73-0.78c0.45-0.54,0.77-1.43,0.95-2.67L55.78,5.87z"/>
	<path d="M66.95,10.08c0.06-0.46,0-0.84-0.2-1.15c-0.2-0.31-0.6-0.61-1.22-0.9c-0.62-0.29-1.13-0.6-1.54-0.91
		c-1.13-0.86-1.65-1.94-1.56-3.26c0.05-0.75,0.29-1.43,0.71-2.02c0.42-0.59,0.98-1.05,1.67-1.38c0.7-0.33,1.45-0.48,2.25-0.46
		c1.16,0.02,2.06,0.43,2.71,1.2c0.65,0.78,0.95,1.77,0.9,2.98l-2.65-0.01c0.07-1.27-0.34-1.91-1.21-1.93
		c-0.45-0.01-0.84,0.13-1.17,0.44c-0.32,0.31-0.52,0.7-0.59,1.18c-0.09,0.72,0.41,1.34,1.5,1.86c1.09,0.51,1.88,1.09,2.36,1.73
		c0.53,0.71,0.76,1.58,0.68,2.6c-0.09,1.18-0.56,2.11-1.39,2.82c-0.83,0.7-1.88,1.04-3.13,1.02c-1.26-0.02-2.25-0.45-2.98-1.28
		c-0.73-0.83-1.06-1.89-1-3.18l2.67,0.01c-0.05,0.8,0.05,1.37,0.31,1.71c0.26,0.34,0.66,0.52,1.21,0.52
		c0.48-0.01,0.86-0.16,1.14-0.45C66.71,10.92,66.88,10.54,66.95,10.08z"/>
	<path d="M75.88,8.94l-0.83,4.75h-2.66l2.34-13.51l4.33,0.01c1.18,0.04,2.11,0.46,2.78,1.27c0.67,0.81,0.95,1.85,0.85,3.12
		c-0.12,1.32-0.62,2.38-1.5,3.18c-0.88,0.79-2,1.19-3.36,1.19L75.88,8.94z M76.26,6.67l1.72,0.02c0.66-0.01,1.17-0.27,1.54-0.77
		c0.37-0.5,0.54-1.17,0.52-2.01c-0.01-0.43-0.11-0.77-0.31-1.02c-0.19-0.25-0.46-0.39-0.8-0.42L77,2.46L76.26,6.67z"/>
	<path d="M89.24,13.88c-1.19-0.02-2.13-0.41-2.83-1.17c-0.7-0.75-1.07-1.8-1.14-3.15c-0.03-0.46-0.01-0.93,0.05-1.41l0.34-2.25
		c0.18-1.2,0.53-2.26,1.05-3.19s1.17-1.62,1.94-2.07C89.44,0.2,90.31-0.02,91.28,0c1.2,0.02,2.14,0.43,2.83,1.23
		c0.68,0.79,1.05,1.88,1.1,3.26c0.01,0.52-0.01,1.01-0.08,1.48l-0.31,2.07c-0.28,1.86-0.91,3.3-1.88,4.34
		C91.97,13.41,90.73,13.91,89.24,13.88z M92.46,5.87c0.07-0.64,0.11-1.13,0.11-1.48c-0.03-1.38-0.53-2.09-1.49-2.12
		c-0.74-0.03-1.34,0.25-1.79,0.84c-0.46,0.59-0.77,1.52-0.95,2.78l-0.33,2.27c-0.07,0.61-0.1,1.09-0.08,1.44
		c0.03,1.3,0.54,1.97,1.53,2.01c0.71,0.02,1.28-0.23,1.74-0.78c0.45-0.54,0.77-1.43,0.95-2.67L92.46,5.87z"/>
	<path d="M102.29,8.76h-1.35l-0.85,4.94h-2.66l2.34-13.51l4.08,0.01c1.21,0.04,2.13,0.41,2.77,1.11c0.64,0.71,0.92,1.67,0.82,2.89
		c-0.16,1.85-1,3.14-2.52,3.86l1.35,5.49v0.15h-2.86L102.29,8.76z M101.32,6.49l1.4,0.02c0.64-0.01,1.15-0.27,1.52-0.77
		c0.37-0.5,0.55-1.16,0.55-1.98c-0.03-0.81-0.38-1.24-1.07-1.29l-1.7-0.01L101.32,6.49z"/>
	<path d="M119.3,2.46h-3.24l-1.95,11.23h-2.67l1.95-11.23h-3.19l0.4-2.27h9.1L119.3,2.46z"/>
</g>
</svg>
